<svg width="32" height="32" viewBox="0 0 32 32" fill="none" xmlns="http://www.w3.org/2000/svg">
<path fill-rule="evenodd" clip-rule="evenodd" d="M12.2963 13.5732L13.6168 12.1919C13.8569 11.9517 13.9769 11.4112 13.6168 11.0508L11.0959 8.22824C11.0959 8.22824 10.4957 7.80786 9.95546 8.10813C9.47529 8.40841 7.5546 9.90979 8.09479 13.2128C8.69501 16.8762 15.1173 23.3621 18.7786 23.9026C22.0798 24.4431 23.5804 22.5814 23.8805 22.0409C24.1806 21.5004 23.8204 20.8999 23.8204 20.8999L20.9394 18.3776C20.4592 17.8971 20.0391 18.1373 19.799 18.3776L18.4785 19.6988C17.4582 20.4194 11.576 14.534 12.2963 13.5732Z" stroke="white" stroke-width="1.3"/>
</svg>
