<svg width="32" height="32" viewBox="0 0 32 32" fill="none" xmlns="http://www.w3.org/2000/svg">
<path d="M15.9999 7.09759C17.7611 7.09759 19.4827 7.61941 20.9471 8.59706C22.4114 9.57471 23.5527 10.9643 24.2267 12.5901C24.9007 14.2158 25.077 16.0048 24.7334 17.7307C24.3898 19.4566 23.5418 21.042 22.2964 22.2863C21.0511 23.5306 19.4644 24.378 17.7371 24.7213C16.0098 25.0646 14.2194 24.8884 12.5923 24.215C10.9652 23.5416 9.57444 22.4012 8.59599 20.938C7.61754 19.4749 7.09529 17.7546 7.09529 15.9949C7.09807 13.6361 8.03712 11.3746 9.70646 9.70662C11.3758 8.03865 13.6391 7.10037 15.9999 7.09759ZM15.9999 5.35096C13.8896 5.35096 11.8268 5.9764 10.0724 7.14812C8.31795 8.31985 6.95079 9.98522 6.14387 11.9335C5.33695 13.8818 5.12653 16.0255 5.53924 18.0933C5.95195 20.1611 6.96924 22.0602 8.4624 23.5501C9.95556 25.0401 11.8575 26.0541 13.9275 26.4637C15.9976 26.8734 18.1427 26.6603 20.0916 25.8515C22.0404 25.0427 23.7053 23.6745 24.8757 21.92C26.0461 20.1654 26.6693 18.1035 26.6666 15.9949C26.667 14.595 26.3915 13.2087 25.8556 11.9152C25.3198 10.6218 24.5342 9.44642 23.5436 8.45637C22.5531 7.46632 21.377 6.68095 20.0827 6.14512C18.7883 5.60929 17.401 5.3335 15.9999 5.3335V5.35096Z" fill="white"/>
<path d="M15.055 17.9595C15.055 17.5067 15.1573 17.0847 15.3619 16.6936C15.5665 16.3026 15.8142 15.9681 16.105 15.6902C16.3957 15.4124 16.6865 15.1499 16.9772 14.9029C17.268 14.6457 17.5156 14.3678 17.7203 14.0693C17.9249 13.7606 18.0272 13.4364 18.0272 13.0968C18.0272 12.5822 17.8387 12.1912 17.4618 11.9236C17.0957 11.6457 16.6165 11.5068 16.0242 11.5068C14.8396 11.5068 14.0805 12.0059 13.7466 13.0042C13.4128 14.0024 12 13.0002 12.4706 12.3249C12.9411 11.6496 13.1974 11.0591 13.8436 10.6886C14.4897 10.3078 15.2219 10.1174 16.0403 10.1174C16.9988 10.1174 17.8172 10.3747 18.4956 10.8893C19.1848 11.4039 19.5294 12.1191 19.5294 13.035C19.5294 13.4673 19.4271 13.8738 19.2225 14.2546C19.0179 14.6354 18.7702 14.9647 18.4794 15.2426C18.1887 15.5204 17.8979 15.7931 17.6072 16.0607C17.3164 16.318 17.0688 16.6113 16.8641 16.9406C16.6595 17.2597 16.5572 17.5993 16.5572 17.9595C16.5572 18.3197 15.055 18.4123 15.055 17.9595ZM15.7981 21.2939C15.5073 21.2939 15.2596 21.1961 15.055 21.0006C14.8504 20.8051 14.7481 20.5684 14.7481 20.2905C14.7481 20.0126 14.8504 19.7759 15.055 19.5804C15.2596 19.3848 15.5073 19.2871 15.7981 19.2871C16.0996 19.2871 16.3473 19.3848 16.5411 19.5804C16.7457 19.7759 16.848 20.0126 16.848 20.2905C16.848 20.5684 16.7457 20.8051 16.5411 21.0006C16.3473 21.1961 16.0996 21.2939 15.7981 21.2939Z" fill="white"/>
</svg>
