<svg width="32" height="32" viewBox="0 0 32 32" fill="none" xmlns="http://www.w3.org/2000/svg">
<path fill-rule="evenodd" clip-rule="evenodd" d="M13.109 17.063C13.5981 17.2002 15.572 17.7499 16 17.7499C16.428 17.7499 16.8779 17.6603 17.3664 17.5232C17.6097 17.4549 17.853 17.3778 18.1056 17.2971L18.1461 17.2842C18.3821 17.2088 18.6278 17.1303 18.8706 17.061C19.8631 16.7774 21.1179 16.5463 22.1921 17.4632C24.2189 19.1879 25.25 21.6845 25.25 24.6099C25.25 25.2224 24.7647 25.75 24.1202 25.75H7.87983C7.23527 25.75 6.75 25.2224 6.75 24.6099C6.75 21.6844 7.78109 19.1882 9.80196 17.4637M13.1265 17.0609C12.1329 16.7774 10.8762 16.5464 9.80196 17.4637L13.1265 17.0609ZM12.7149 18.5033C11.7592 18.2307 11.2156 18.229 10.7761 18.6043C9.21737 19.9344 8.33592 21.859 8.25597 24.25H23.744C23.6641 21.8592 22.7828 19.9352 21.2196 18.6052L21.2185 18.6043C20.7789 18.2289 20.2366 18.2307 19.2826 18.5033C19.0628 18.5661 18.8375 18.638 18.5954 18.7153L18.5618 18.7261C18.3111 18.8061 18.044 18.891 17.7717 18.9674C17.2291 19.1197 16.6274 19.2499 16 19.2499C15.3727 19.2499 14.7706 19.1197 14.2276 18.9675C13.9551 18.8911 13.6877 18.8062 13.4368 18.7261L13.4039 18.7157C13.1612 18.6383 12.9353 18.5662 12.7149 18.5033Z" fill="white"/>
<path fill-rule="evenodd" clip-rule="evenodd" d="M16 8.75C14.4812 8.75 13.25 9.98122 13.25 11.5C13.25 13.0188 14.4812 14.25 16 14.25C17.5188 14.25 18.75 13.0188 18.75 11.5C18.75 9.98122 17.5188 8.75 16 8.75ZM11.75 11.5C11.75 9.15279 13.6528 7.25 16 7.25C18.3472 7.25 20.25 9.15279 20.25 11.5C20.25 13.8472 18.3472 15.75 16 15.75C13.6528 15.75 11.75 13.8472 11.75 11.5Z" fill="white"/>
</svg>
