<svg width="38" height="28" viewBox="0 0 38 28" fill="none" xmlns="http://www.w3.org/2000/svg">
<path d="M5.04246 14.2777C6.32325 12.6177 8.35032 11.8777 10.6699 11.8777C14.9559 11.8777 18.052 14.7477 18.052 19.5877C18.052 24.1377 15.1576 27.9977 9.07643 27.9977C3.48938 27.9977 0 24.0377 0 17.6077C0 9.00773 5.21391 2.25773 14.6433 0.0277286C15.198 -0.102271 15.8132 0.237729 16.0048 0.777729L16.1964 1.31773C16.388 1.85773 16.0955 2.38773 15.5409 2.54773C9.31847 4.27773 5.54671 8.03773 4.60881 14.1277C4.52813 14.6877 4.68949 14.7377 5.04246 14.2777ZM24.9904 14.2777C26.2712 12.6177 28.2983 11.8777 30.6178 11.8777C34.9039 11.8777 38 14.7477 38 19.5877C38 24.1377 35.1056 27.9977 29.0244 27.9977C23.4374 27.9977 19.948 24.0377 19.948 17.6077C19.948 9.00773 25.1619 2.25773 34.6014 0.0277286C35.1561 -0.102271 35.7712 0.237729 35.9628 0.777729L36.1545 1.31773C36.3461 1.85773 36.0536 2.38773 35.4989 2.54773C29.2765 4.27773 25.5048 8.03773 24.5669 14.1277C24.4761 14.6877 24.6476 14.7377 24.9904 14.2777Z" fill="#FF8800"/>
</svg>
