<svg width="61" height="60" viewBox="0 0 61 60" fill="none" xmlns="http://www.w3.org/2000/svg">
<rect x="0.5" width="60" height="60" rx="7.5" fill="#BFDBD8"/>
<path d="M47.702 25.5738C47.0393 24.8813 46.3537 24.1676 46.0953 23.54C45.8563 22.9652 45.8422 22.0125 45.8281 21.0896C45.8018 19.374 45.7736 17.4299 44.4219 16.0781C43.0701 14.7264 41.126 14.6982 39.4104 14.6719C38.4875 14.6578 37.5348 14.6437 36.96 14.4047C36.3342 14.1463 35.6187 13.4607 34.9262 12.798C33.7133 11.6326 32.3352 10.3125 30.5 10.3125C28.6648 10.3125 27.2885 11.6326 26.0738 12.798C25.3813 13.4607 24.6676 14.1463 24.04 14.4047C23.4688 14.6437 22.5125 14.6578 21.5896 14.6719C19.874 14.6982 17.9299 14.7264 16.5781 16.0781C15.2264 17.4299 15.207 19.374 15.1719 21.0896C15.1578 22.0125 15.1437 22.9652 14.9047 23.54C14.6463 24.1658 13.9607 24.8813 13.298 25.5738C12.1326 26.7867 10.8125 28.1648 10.8125 30C10.8125 31.8352 12.1326 33.2115 13.298 34.4262C13.9607 35.1187 14.6463 35.8324 14.9047 36.46C15.1437 37.0348 15.1578 37.9875 15.1719 38.9104C15.1982 40.626 15.2264 42.5701 16.5781 43.9219C17.9299 45.2736 19.874 45.3018 21.5896 45.3281C22.5125 45.3422 23.4652 45.3563 24.04 45.5953C24.6658 45.8537 25.3813 46.5393 26.0738 47.202C27.2867 48.3674 28.6648 49.6875 30.5 49.6875C32.3352 49.6875 33.7115 48.3674 34.9262 47.202C35.6187 46.5393 36.3324 45.8537 36.96 45.5953C37.5348 45.3563 38.4875 45.3422 39.4104 45.3281C41.126 45.3018 43.0701 45.2736 44.4219 43.9219C45.7736 42.5701 45.8018 40.626 45.8281 38.9104C45.8422 37.9875 45.8563 37.0348 46.0953 36.46C46.3537 35.8342 47.0393 35.1187 47.702 34.4262C48.8674 33.2133 50.1875 31.8352 50.1875 30C50.1875 28.1648 48.8674 26.7885 47.702 25.5738ZM45.6717 32.4803C44.8297 33.3592 43.9578 34.268 43.4955 35.3842C43.0525 36.4564 43.0332 37.6816 43.0156 38.8682C42.998 40.0986 42.9787 41.3871 42.432 41.932C41.8854 42.477 40.6057 42.498 39.3682 42.5156C38.1816 42.5332 36.9564 42.5525 35.8842 42.9955C34.768 43.4578 33.8592 44.3297 32.9803 45.1717C32.1014 46.0137 31.2031 46.875 30.5 46.875C29.7969 46.875 28.8916 46.0102 28.0197 45.1717C27.1479 44.3332 26.232 43.4578 25.1158 42.9955C24.0436 42.5525 22.8184 42.5332 21.6318 42.5156C20.4014 42.498 19.1129 42.4787 18.568 41.932C18.023 41.3854 18.002 40.1057 17.9844 38.8682C17.9668 37.6816 17.9475 36.4564 17.5045 35.3842C17.0422 34.268 16.1703 33.3592 15.3283 32.4803C14.4863 31.6014 13.625 30.7031 13.625 30C13.625 29.2969 14.4898 28.3916 15.3283 27.5197C16.1668 26.6479 17.0422 25.732 17.5045 24.6158C17.9475 23.5436 17.9668 22.3184 17.9844 21.1318C18.002 19.9014 18.0213 18.6129 18.568 18.068C19.1146 17.523 20.3943 17.502 21.6318 17.4844C22.8184 17.4668 24.0436 17.4475 25.1158 17.0045C26.232 16.5422 27.1408 15.6703 28.0197 14.8283C28.8986 13.9863 29.7969 13.125 30.5 13.125C31.2031 13.125 32.1084 13.9898 32.9803 14.8283C33.8521 15.6668 34.768 16.5422 35.8842 17.0045C36.9564 17.4475 38.1816 17.4668 39.3682 17.4844C40.5986 17.502 41.8871 17.5213 42.432 18.068C42.977 18.6146 42.998 19.8943 43.0156 21.1318C43.0332 22.3184 43.0525 23.5436 43.4955 24.6158C43.9578 25.732 44.8297 26.6408 45.6717 27.5197C46.5137 28.3986 47.375 29.2969 47.375 30C47.375 30.7031 46.5102 31.6084 45.6717 32.4803ZM38.5262 24.7863C38.6569 24.9169 38.7606 25.072 38.8314 25.2427C38.9022 25.4135 38.9386 25.5964 38.9386 25.7812C38.9386 25.9661 38.9022 26.149 38.8314 26.3198C38.7606 26.4905 38.6569 26.6456 38.5262 26.7762L28.6824 36.6199C28.5518 36.7507 28.3967 36.8544 28.226 36.9252C28.0553 36.9959 27.8723 37.0324 27.6875 37.0324C27.5027 37.0324 27.3197 36.9959 27.149 36.9252C26.9783 36.8544 26.8232 36.7507 26.6926 36.6199L22.4738 32.4012C22.21 32.1373 22.0617 31.7794 22.0617 31.4062C22.0617 31.0331 22.21 30.6752 22.4738 30.4113C22.7377 30.1475 23.0956 29.9992 23.4688 29.9992C23.8419 29.9992 24.1998 30.1475 24.4637 30.4113L27.6875 33.6369L36.5363 24.7863C36.6669 24.6556 36.822 24.5519 36.9927 24.4811C37.1635 24.4103 37.3464 24.3739 37.5312 24.3739C37.7161 24.3739 37.899 24.4103 38.0698 24.4811C38.2405 24.5519 38.3956 24.6556 38.5262 24.7863Z" fill="#0E3F3A"/>
</svg>
