<svg width="61" height="60" viewBox="0 0 61 60" fill="none" xmlns="http://www.w3.org/2000/svg">
<rect x="0.5" width="60" height="60" rx="7.5" fill="#BFDBD8"/>
<path d="M47.375 42.6562H45.9688V14.5312C45.9688 14.1583 45.8206 13.8006 45.5569 13.5369C45.2931 13.2732 44.9355 13.125 44.5625 13.125H34.7188C34.3458 13.125 33.9881 13.2732 33.7244 13.5369C33.4607 13.8006 33.3125 14.1583 33.3125 14.5312V21.5625H24.875C24.502 21.5625 24.1444 21.7107 23.8806 21.9744C23.6169 22.2381 23.4688 22.5958 23.4688 22.9688V30H16.4375C16.0645 30 15.7069 30.1482 15.4431 30.4119C15.1794 30.6756 15.0312 31.0333 15.0312 31.4062V42.6562H13.625C13.252 42.6562 12.8944 42.8044 12.6306 43.0681C12.3669 43.3319 12.2188 43.6895 12.2188 44.0625C12.2188 44.4355 12.3669 44.7931 12.6306 45.0569C12.8944 45.3206 13.252 45.4688 13.625 45.4688H47.375C47.748 45.4688 48.1056 45.3206 48.3694 45.0569C48.6331 44.7931 48.7812 44.4355 48.7812 44.0625C48.7812 43.6895 48.6331 43.3319 48.3694 43.0681C48.1056 42.8044 47.748 42.6562 47.375 42.6562ZM36.125 15.9375H43.1562V42.6562H36.125V15.9375ZM26.2812 24.375H33.3125V42.6562H26.2812V24.375ZM17.8438 32.8125H23.4688V42.6562H17.8438V32.8125Z" fill="#0E3F3A"/>
</svg>
