<svg width="60" height="60" viewBox="0 0 60 60" fill="none" xmlns="http://www.w3.org/2000/svg">
<rect width="60" height="60" rx="7.5" fill="#BFDBD8"/>
<path d="M44.0625 13.125H39.8438V11.7188C39.8438 11.3458 39.6956 10.9881 39.4319 10.7244C39.1681 10.4607 38.8105 10.3125 38.4375 10.3125C38.0645 10.3125 37.7069 10.4607 37.4431 10.7244C37.1794 10.9881 37.0312 11.3458 37.0312 11.7188V13.125H22.9688V11.7188C22.9688 11.3458 22.8206 10.9881 22.5569 10.7244C22.2931 10.4607 21.9355 10.3125 21.5625 10.3125C21.1895 10.3125 20.8319 10.4607 20.5681 10.7244C20.3044 10.9881 20.1562 11.3458 20.1562 11.7188V13.125H15.9375C15.1916 13.125 14.4762 13.4213 13.9488 13.9488C13.4213 14.4762 13.125 15.1916 13.125 15.9375V44.0625C13.125 44.8084 13.4213 45.5238 13.9488 46.0512C14.4762 46.5787 15.1916 46.875 15.9375 46.875H44.0625C44.8084 46.875 45.5238 46.5787 46.0512 46.0512C46.5787 45.5238 46.875 44.8084 46.875 44.0625V15.9375C46.875 15.1916 46.5787 14.4762 46.0512 13.9488C45.5238 13.4213 44.8084 13.125 44.0625 13.125ZM20.1562 15.9375V17.3438C20.1562 17.7167 20.3044 18.0744 20.5681 18.3381C20.8319 18.6018 21.1895 18.75 21.5625 18.75C21.9355 18.75 22.2931 18.6018 22.5569 18.3381C22.8206 18.0744 22.9688 17.7167 22.9688 17.3438V15.9375H37.0312V17.3438C37.0312 17.7167 37.1794 18.0744 37.4431 18.3381C37.7069 18.6018 38.0645 18.75 38.4375 18.75C38.8105 18.75 39.1681 18.6018 39.4319 18.3381C39.6956 18.0744 39.8438 17.7167 39.8438 17.3438V15.9375H44.0625V21.5625H15.9375V15.9375H20.1562ZM44.0625 44.0625H15.9375V24.375H44.0625V44.0625ZM37.323 29.0051C37.4538 29.1357 37.5575 29.2908 37.6283 29.4615C37.6991 29.6322 37.7355 29.8152 37.7355 30C37.7355 30.1848 37.6991 30.3678 37.6283 30.5385C37.5575 30.7092 37.4538 30.8643 37.323 30.9949L28.8855 39.4324C28.7549 39.5632 28.5999 39.6669 28.4291 39.7377C28.2584 39.8084 28.0754 39.8449 27.8906 39.8449C27.7058 39.8449 27.5228 39.8084 27.3521 39.7377C27.1814 39.6669 27.0263 39.5632 26.8957 39.4324L22.677 35.2137C22.4131 34.9498 22.2648 34.5919 22.2648 34.2188C22.2648 33.8456 22.4131 33.4877 22.677 33.2238C22.9408 32.96 23.2987 32.8117 23.6719 32.8117C24.045 32.8117 24.4029 32.96 24.6668 33.2238L27.8906 36.4494L35.3332 29.0051C35.4638 28.8743 35.6189 28.7706 35.7896 28.6998C35.9603 28.6291 36.1433 28.5926 36.3281 28.5926C36.5129 28.5926 36.6959 28.6291 36.8666 28.6998C37.0374 28.7706 37.1924 28.8743 37.323 29.0051Z" fill="#0E3F3A"/>
</svg>
