<svg width="60" height="60" viewBox="0 0 60 60" fill="none" xmlns="http://www.w3.org/2000/svg">
<rect width="60" height="60" rx="7.5" fill="#BFDBD8"/>
<path d="M25.7407 40.1847C25.6722 40.4572 23.9583 46.875 14.5311 46.875C14.1582 46.875 13.8005 46.7268 13.5368 46.4631C13.273 46.1994 13.1249 45.8417 13.1249 45.4687C13.1249 36.0416 19.5427 34.3277 19.8151 34.2592C20.1771 34.1687 20.5602 34.2258 20.8802 34.4178C21.2001 34.6098 21.4306 34.9211 21.5211 35.2831C21.6115 35.6451 21.5545 36.0282 21.3624 36.3481C21.1704 36.668 20.8592 36.8986 20.4972 36.989C20.339 37.033 16.5561 38.1386 16.0042 43.9957C21.8612 43.4437 22.9686 39.6679 23.0143 39.4922C23.1076 39.1306 23.3406 38.8209 23.6622 38.6312C23.9838 38.4415 24.3676 38.3873 24.7291 38.4805C25.0906 38.5738 25.4003 38.8068 25.59 39.1284C25.7798 39.45 25.834 39.8337 25.7407 40.1953V40.1847ZM42.0884 28.3371L41.2499 29.1756V39.4289C41.252 39.7996 41.1803 40.1671 41.0391 40.5099C40.8979 40.8527 40.6899 41.1641 40.4272 41.4258L34.3944 47.4551C34.1343 47.7171 33.8248 47.925 33.4839 48.0668C33.143 48.2086 32.7773 48.2815 32.4081 48.2812C32.1034 48.2811 31.8006 48.2319 31.5116 48.1353C31.0154 47.9712 30.5749 47.6715 30.2401 47.2702C29.9052 46.8689 29.6893 46.3819 29.6167 45.8642L28.6727 39.0984L20.9015 31.3271L14.1391 30.3832C13.6208 30.3105 13.1331 30.0946 12.7308 29.7598C12.3285 29.4251 12.0276 28.9847 11.8619 28.4882C11.6962 27.9917 11.6724 27.4589 11.793 26.9496C11.9137 26.4403 12.174 25.9748 12.5448 25.6054L18.5741 19.5726C18.8358 19.31 19.1471 19.102 19.4899 18.9608C19.8327 18.8195 20.2002 18.7479 20.571 18.75H30.8243L31.6628 17.9115C36.3526 13.2234 42.004 13.0213 44.2153 13.1531C44.901 13.1948 45.5477 13.4859 46.0335 13.9717C46.5192 14.4574 46.8104 15.1041 46.852 15.7898C46.9804 17.9959 46.7782 23.6472 42.0901 28.3371H42.0884ZM14.5311 27.5988L21.0614 28.5093L28.0118 21.5625H20.571L14.5311 27.5988ZM23.5522 30L29.9999 36.4476L40.0985 26.349C41.4595 24.9972 42.5153 23.3698 43.1951 21.5761C43.8748 19.7824 44.1628 17.864 44.0395 15.9498C42.1263 15.8311 40.2098 16.1221 38.418 16.8032C36.6262 17.4844 35.0004 18.54 33.6491 19.8996L23.5522 30ZM38.4374 31.9881L31.4888 38.9367L32.4028 45.4687L38.4374 39.4289V31.9881Z" fill="#0E3F3A"/>
</svg>
