<svg width="32" height="32" viewBox="0 0 32 32" fill="none" xmlns="http://www.w3.org/2000/svg">
<path d="M16.1313 15.8579C15.7408 16.2484 15.1076 16.2484 14.7171 15.8579L13.8667 15.0075C13.4762 14.6169 12.843 14.6169 12.4525 15.0075L12.3583 15.1016C11.9678 15.4922 11.9678 16.1253 12.3583 16.5159L14.7211 18.8787C15.1117 19.2692 15.7448 19.2692 16.1353 18.8787L20.0025 15.0115C20.3931 14.621 20.3931 13.9878 20.0025 13.5973L19.9043 13.4991C19.5138 13.1085 18.8806 13.1085 18.4901 13.4991L16.1313 15.8579Z" fill="#BFDBD8"/>
<path d="M9.95778 22.0412C6.90712 18.9801 6.66266 14.1476 9.22442 10.8026C9.54076 10.3896 10.1642 10.521 10.3452 11.0088C10.6218 11.7545 11.7269 11.5562 11.7269 10.7608V7.40344C11.7269 6.85116 11.2792 6.40344 10.7269 6.40344H7.61445C6.70834 6.40344 6.464 7.65189 7.30325 7.99348C7.85038 8.21618 7.99456 8.92852 7.62766 9.39149C4.31324 13.5737 4.58936 19.682 8.45601 23.5487C10.8772 25.9647 14.1723 26.9805 17.3272 26.5827C17.7985 26.5233 18.1322 26.1088 18.1322 25.6338V25.5467C18.1322 24.8925 17.512 24.416 16.8612 24.4833C14.3977 24.7384 11.8432 23.9267 9.95778 22.0412Z" fill="#BFDBD8"/>
<path d="M23.5424 8.46262C21.1212 6.03616 17.8261 5.01953 14.6712 5.41718C14.2 5.47658 13.8662 5.89114 13.8662 6.36613V6.45317C13.8662 7.10745 14.4865 7.584 15.1373 7.51725C17.602 7.2645 20.16 8.08373 22.0406 9.96439C25.1026 13.0263 25.3472 17.8605 22.7745 21.2056C22.4575 21.6178 21.8346 21.4858 21.6538 20.9983C21.3771 20.2523 20.2715 20.4508 20.2715 21.2464V24.6078C20.2715 25.1601 20.7192 25.6078 21.2715 25.6078H24.3882C25.2946 25.6078 25.5391 24.359 24.6995 24.0173C24.1527 23.7947 24.0081 23.083 24.3744 22.6199C27.6852 18.4331 27.4094 12.3244 23.5424 8.46262Z" fill="#BFDBD8"/>
</svg>
