<svg width="122" height="18" viewBox="0 0 122 18" fill="none" xmlns="http://www.w3.org/2000/svg">
<path d="M65.4973 6.62537H63.9875C63.9875 3.96699 62.4778 2.78066 59.8228 2.78066C57.5344 2.78066 56.2296 3.85726 56.2296 5.61502C56.2296 7.47837 57.625 8.03117 60.349 8.66885C63.4397 9.39349 65.7971 10.1409 65.7971 13.2382C65.7971 15.9628 63.6403 17.6978 60.2347 17.6978C56.5488 17.6978 54.3984 15.8345 54.3984 12.2051H55.8866C55.8866 15.1285 57.6121 16.3811 60.2347 16.3811C62.8574 16.3811 64.283 15.2361 64.283 13.2506C64.283 11.3169 62.797 10.7889 59.9802 10.1078C56.8442 9.36036 54.7155 8.61295 54.7155 5.62537C54.7155 3.18645 56.6156 1.47217 59.8206 1.47217C63.6079 1.48045 65.4973 3.23821 65.4973 6.62537Z" fill="white"/>
<path d="M76.2769 14.0933H77.7436C77.3769 16.0043 75.7507 17.6958 72.8218 17.6958C69.5024 17.6958 67.5117 15.3231 67.5117 11.6316C67.5117 8.33763 69.4528 5.96289 72.729 5.96289C75.3387 5.96289 77.1483 7.48049 77.6508 9.94011C77.7889 10.6503 77.8514 11.3708 77.8341 12.0933H68.9525C69.0215 15.0602 70.6779 16.5322 72.8218 16.5322C74.7219 16.5322 75.934 15.5281 76.2769 14.0933ZM68.9762 10.9732H76.4603C76.3007 8.48877 74.8125 7.12852 72.729 7.12852C70.6003 7.12852 69.1142 8.5778 68.9762 10.9732Z" fill="white"/>
<path d="M89.3715 10.6211V17.41H87.9523V10.6874C87.9523 8.05179 86.8308 7.19464 84.9759 7.19464C83.1686 7.19464 81.5876 8.43688 81.5876 10.7971V17.41H80.1685V6.24847H81.5661V7.76607H81.6114C82.3209 6.71017 83.6258 6.00831 85.2283 6.00831C87.9049 6.00417 89.3715 7.54454 89.3715 10.6211Z" fill="white"/>
<path d="M100.22 9.78706H98.8007C98.8007 8.09555 97.7007 7.14938 95.848 7.14938C94.2455 7.14938 93.2146 7.87609 93.2146 8.99617C93.2146 10.3585 94.1312 10.5345 96.1456 10.9962C98.3197 11.4786 100.563 11.9175 100.563 14.4454C100.563 16.3792 98.8697 17.696 96.2147 17.696C93.2836 17.696 91.5668 16.2467 91.5215 13.6546H92.9644C92.9644 15.4786 94.1549 16.5096 96.2147 16.5096C97.953 16.5096 99.1436 15.7187 99.1436 14.5324C99.1436 13.0604 98.1364 12.7974 95.6927 12.255C93.7516 11.814 91.7997 11.4413 91.7997 9.11211C91.7997 7.22185 93.4712 5.96926 95.8523 5.96926C98.5936 5.96305 100.196 7.34814 100.22 9.78706Z" fill="white"/>
<path d="M110.93 14.0933H112.396C112.03 16.0043 110.403 17.6958 107.475 17.6958C104.155 17.6958 102.165 15.3211 102.165 11.6316C102.165 8.33763 104.106 5.96289 107.382 5.96289C109.992 5.96289 111.801 7.48049 112.304 9.94011C112.442 10.6503 112.504 11.3708 112.487 12.0933H103.605C103.674 15.0602 105.331 16.5322 107.475 16.5322C109.375 16.5322 110.587 15.5281 110.93 14.0933ZM103.629 10.9732H111.113C110.953 8.48877 109.465 7.12852 107.382 7.12852C105.255 7.12852 103.767 8.5778 103.629 10.9732Z" fill="white"/>
<path d="M121.253 0H120.276L116.48 6.36438L114.077 2.75776H115.181L116.45 4.7412L118.061 2.03105C117.489 1.62526 116.797 1.40787 116.085 1.40994C114.239 1.40787 112.74 2.84265 112.738 4.6149C112.736 6.38716 114.23 7.82608 116.077 7.82815C117.923 7.83022 119.422 6.39544 119.424 4.62318C119.424 4.2236 119.346 3.82608 119.195 3.45341L121.253 0Z" fill="white"/>
<path d="M8.0966 3.28985V16.6749H5.3661V3.28985H0V1H13.4627V3.28985H8.0966Z" fill="white"/>
<path d="M18.8701 13.3062H21.5532C21.1197 15.3103 19.239 17.0039 16.1871 17.0039C12.6327 17.0039 10.5449 14.5608 10.5449 10.9501C10.5449 7.64779 12.609 5.15918 16.1418 5.15918C18.8033 5.15918 20.7293 6.6333 21.372 8.9687C21.6006 9.67263 21.6934 10.5091 21.6934 11.5877H13.1374C13.2301 14.1198 14.5587 15.155 16.1871 15.155C17.6774 15.155 18.6415 14.3848 18.8701 13.3062ZM13.1827 9.93764H19.0772C18.8939 7.97905 17.7012 7.01011 16.1418 7.01011C14.5587 7.01011 13.4135 7.99976 13.1827 9.93764Z" fill="white"/>
<path d="M33.1738 9.5422V13.7265C33.1738 15.0474 33.2881 15.9728 33.4715 16.6768H31.1098C30.9955 16.1923 30.9502 15.6416 30.9502 15.1136H30.9049C30.0573 16.302 28.7481 16.919 26.9838 16.919C24.5531 16.919 23.0391 15.5091 23.0391 13.594C23.0391 11.7658 24.1628 10.5774 27.5123 10.0722C28.4526 9.91901 29.8286 9.78651 30.6547 9.74096V9.29996C30.6547 7.64779 29.7143 6.98734 28.3836 6.98734C26.9385 6.98734 26.1599 7.75752 26.0909 8.94593H23.5222C23.6365 6.83206 25.2433 5.15918 28.3836 5.15918C31.4527 5.15918 33.1738 6.6126 33.1738 9.5422ZM30.6504 11.3683C29.8696 11.4118 28.7459 11.5236 27.9673 11.654C26.2937 11.919 25.6747 12.4035 25.6747 13.4159C25.6747 14.4076 26.408 15.0681 27.7387 15.0681C28.541 15.0681 29.3218 14.8258 29.8481 14.3186C30.4671 13.7016 30.6504 13.1074 30.6504 11.919V11.3683Z" fill="white"/>
<path d="M52.328 9.78447V16.6747H49.7139V10.0267C49.7139 8.04534 48.9116 7.25238 47.6046 7.25238C46.069 7.25238 45.1502 8.50704 45.1502 10.6437V16.6768H42.5361V9.7617C42.5361 8.17578 41.8028 7.25238 40.4483 7.25238C38.889 7.25238 37.9939 8.52982 37.9939 10.6872V16.6747H35.3799V5.49048H37.8796V6.83417H37.9249C38.751 5.75549 39.7819 5.22754 41.1579 5.22754C42.7626 5.22754 44.0027 5.93147 44.598 7.25238C45.4456 5.97495 46.5715 5.22754 48.3357 5.22754C50.8161 5.22547 52.328 6.76791 52.328 9.78447Z" fill="white"/>
</svg>
