<svg width="149" height="46" viewBox="0 0 149 46" fill="none" xmlns="http://www.w3.org/2000/svg">
<path d="M137.667 5.33331C137.667 2.38779 140.054 -1.90735e-05 143 -1.90735e-05C145.946 -1.90735e-05 148.333 2.38779 148.333 5.33331C148.333 8.27883 145.946 10.6666 143 10.6666C140.054 10.6666 137.667 8.27883 137.667 5.33331ZM0 44.3333V43.3333H2.09375V44.3333V45.3333H0V44.3333ZM6.28125 44.3333V43.3333H10.4688V44.3333V45.3333H6.28125V44.3333ZM14.6562 44.3333V43.3333H18.8438V44.3333V45.3333H14.6562V44.3333ZM23.0312 44.3333V43.3333H27.2188V44.3333V45.3333H23.0312V44.3333ZM31.4062 44.3333V43.3333H35.5938V44.3333V45.3333H31.4062V44.3333ZM39.7812 44.3333V43.3333H43.9688V44.3333V45.3333H39.7812V44.3333ZM48.1562 44.3333V43.3333H52.3438V44.3333V45.3333H48.1562V44.3333ZM56.5312 44.3333V43.3333H60.7188V44.3333V45.3333H56.5312V44.3333ZM64.9062 44.3333V43.3333H67V44.3333V45.3333H64.9062V44.3333ZM67 44.3333V43.3333C67.4688 43.3333 67.9258 43.2874 68.3672 43.2001L68.5613 44.181L68.7554 45.162C68.1868 45.2745 67.5998 45.3333 67 45.3333V44.3333ZM71.4449 42.9858L70.8886 42.1549C71.6524 41.6435 72.3102 40.9857 72.8216 40.2219L73.6525 40.7782L74.4835 41.3346C73.8267 42.3156 72.9823 43.16 72.0012 43.8168L71.4449 42.9858ZM74.8477 37.8946L73.8667 37.7005C73.9541 37.2591 74 36.8021 74 36.3333H75H76C76 36.9331 75.9412 37.5201 75.8287 38.0887L74.8477 37.8946ZM75 36.3333H74V34.4166H75H76V36.3333H75ZM75 30.5833H74V26.75H75H76V30.5833H75ZM75 22.9166H74V19.0833H75H76V22.9166H75ZM75 15.25H74V13.3333H75H76V15.25H75ZM75 13.3333H74C74 12.7335 74.0588 12.1465 74.1713 11.5779L75.1523 11.772L76.1333 11.9661C76.0459 12.4075 76 12.8645 76 13.3333H75ZM76.3475 8.88839L75.5165 8.33207C76.1733 7.35104 77.0177 6.50661 77.9988 5.84982L78.5551 6.68079L79.1114 7.51176C78.3476 8.02311 77.6898 8.68092 77.1784 9.44471L76.3475 8.88839ZM81.4387 5.48559L81.2446 4.5046C81.8132 4.39212 82.4002 4.33331 83 4.33331V5.33331V6.33331C82.5312 6.33331 82.0742 6.37925 81.6328 6.46658L81.4387 5.48559ZM83 5.33331V4.33331H84.875V5.33331V6.33331H83V5.33331ZM88.625 5.33331V4.33331H92.375V5.33331V6.33331H88.625V5.33331ZM96.125 5.33331V4.33331H99.875V5.33331V6.33331H96.125V5.33331ZM103.625 5.33331V4.33331H107.375V5.33331V6.33331H103.625V5.33331ZM111.125 5.33331V4.33331H114.875V5.33331V6.33331H111.125V5.33331ZM118.625 5.33331V4.33331H122.375V5.33331V6.33331H118.625V5.33331ZM126.125 5.33331V4.33331H129.875V5.33331V6.33331H126.125V5.33331ZM133.625 5.33331V4.33331H137.375V5.33331V6.33331H133.625V5.33331ZM141.125 5.33331V4.33331H143V5.33331V6.33331H141.125V5.33331Z" fill="#F6B725"/>
</svg>
