<svg width="12" height="85" viewBox="0 0 12 85" fill="none" xmlns="http://www.w3.org/2000/svg">
<path d="M5.77344 4.06901e-05C2.82792 4.05614e-05 0.440104 2.38786 0.440104 5.33337C0.440104 8.27889 2.82792 10.6667 5.77344 10.6667C8.71896 10.6667 11.1068 8.27889 11.1068 5.33337C11.1068 2.38786 8.71896 4.08189e-05 5.77344 4.06901e-05ZM5.77343 84.3334L11.5469 74.3334L-6.8208e-05 74.3334L5.77343 84.3334ZM5.77344 5.33337L4.77344 5.33337L4.77344 7.30837L5.77344 7.30837L6.77344 7.30837L6.77344 5.33337L5.77344 5.33337ZM5.77344 11.2584L4.77344 11.2584L4.77344 15.2084L5.77344 15.2084L6.77344 15.2084L6.77344 11.2584L5.77344 11.2584ZM5.77344 19.1584L4.77344 19.1584L4.77344 23.1084L5.77344 23.1084L6.77344 23.1084L6.77344 19.1584L5.77344 19.1584ZM5.77344 27.0584L4.77344 27.0584L4.77344 31.0084L5.77344 31.0084L6.77344 31.0084L6.77344 27.0584L5.77344 27.0584ZM5.77344 34.9584L4.77344 34.9584L4.77344 38.9084L5.77344 38.9084L6.77344 38.9084L6.77344 34.9584L5.77344 34.9584ZM5.77344 42.8584L4.77344 42.8584L4.77344 46.8084L5.77344 46.8084L6.77344 46.8084L6.77344 42.8584L5.77344 42.8584ZM5.77344 50.7584L4.77344 50.7584L4.77344 54.7084L5.77344 54.7084L6.77344 54.7084L6.77344 50.7584L5.77344 50.7584ZM5.77344 58.6584L4.77344 58.6584L4.77343 62.6084L5.77343 62.6084L6.77343 62.6084L6.77344 58.6584L5.77344 58.6584ZM5.77343 66.5584L4.77343 66.5584L4.77343 70.5084L5.77343 70.5084L6.77343 70.5084L6.77343 66.5584L5.77343 66.5584ZM5.77343 74.4584L4.77343 74.4584L4.77343 78.4084L5.77343 78.4084L6.77343 78.4084L6.77343 74.4584L5.77343 74.4584Z" fill="url(#paint0_linear_2149_910)"/>
<defs>
<linearGradient id="paint0_linear_2149_910" x1="5.27343" y1="84.3334" x2="5.27344" y2="5.33337" gradientUnits="userSpaceOnUse">
<stop stop-color="#FAD47C"/>
<stop offset="1" stop-color="#BFDBD8"/>
</linearGradient>
</defs>
</svg>
