<svg width="149" height="67" viewBox="0 0 149 67" fill="none" xmlns="http://www.w3.org/2000/svg">
<path d="M137.667 61C137.667 63.9455 140.054 66.3333 143 66.3333C145.946 66.3333 148.333 63.9455 148.333 61C148.333 58.0545 145.946 55.6667 143 55.6667C140.054 55.6667 137.667 58.0545 137.667 61ZM0 1V2H2.09375V1V0H0V1ZM6.28125 1V2H10.4688V1V0H6.28125V1ZM14.6562 1V2H18.8438V1V0H14.6562V1ZM23.0312 1V2H27.2188V1V0H23.0312V1ZM31.4062 1V2H35.5938V1V0H31.4062V1ZM39.7812 1V2H43.9688V1V0H39.7812V1ZM48.1562 1V2H52.3438V1V0H48.1562V1ZM56.5312 1V2H60.7188V1V0H56.5312V1ZM64.9062 1V2H67V1V0H64.9062V1ZM67 1V2C67.4688 2 67.9258 2.04594 68.3672 2.13326L68.5613 1.15227L68.7554 0.171285C68.1868 0.0588115 67.5998 0 67 0V1ZM71.4449 2.34748L70.8886 3.17845C71.6524 3.68979 72.3102 4.3476 72.8216 5.1114L73.6525 4.55508L74.4835 3.99876C73.8267 3.01772 72.9823 2.17329 72.0012 1.51651L71.4449 2.34748ZM74.8477 7.4387L73.8667 7.63277C73.9541 8.07417 74 8.53122 74 9H75H76C76 8.40021 75.9412 7.81317 75.8287 7.24464L74.8477 7.4387ZM75 9H74V10.8333H75H76V9H75ZM75 14.5H74V18.1667H75H76V14.5H75ZM75 21.8333H74V25.5H75H76V21.8333H75ZM75 29.1667H74V32.8333H75H76V29.1667H75ZM75 36.5H74V40.1667H75H76V36.5H75ZM75 43.8333H74V47.5H75H76V43.8333H75ZM75 51.1667H74V53H75H76V51.1667H75ZM75 53H74C74 53.5998 74.0588 54.1868 74.1713 54.7554L75.1523 54.5613L76.1333 54.3672C76.0459 53.9258 76 53.4688 76 53H75ZM76.3475 57.4449L75.5165 58.0012C76.1733 58.9823 77.0177 59.8267 77.9988 60.4835L78.5551 59.6525L79.1114 58.8216C78.3476 58.3102 77.6898 57.6524 77.1784 56.8886L76.3475 57.4449ZM81.4387 60.8477L81.2446 61.8287C81.8132 61.9412 82.4002 62 83 62V61V60C82.5312 60 82.0742 59.9541 81.6328 59.8667L81.4387 60.8477ZM83 61V62H84.875V61V60H83V61ZM88.625 61V62H92.375V61V60H88.625V61ZM96.125 61V62H99.875V61V60H96.125V61ZM103.625 61V62H107.375V61V60H103.625V61ZM111.125 61V62H114.875V61V60H111.125V61ZM118.625 61V62H122.375V61V60H118.625V61ZM126.125 61V62H129.875V61V60H126.125V61ZM133.625 61V62H137.375V61V60H133.625V61ZM141.125 61V62H143V61V60H141.125V61Z" fill="#F6B725"/>
</svg>
