<svg width="149" height="97" viewBox="0 0 149 97" fill="none" xmlns="http://www.w3.org/2000/svg">
<path d="M137.667 5.33331C137.667 2.38779 140.054 -2.28882e-05 143 -2.28882e-05C145.946 -2.28882e-05 148.333 2.38779 148.333 5.33331C148.333 8.27883 145.946 10.6666 143 10.6666C140.054 10.6666 137.667 8.27883 137.667 5.33331ZM0 95.3333V94.3333H2.09375V95.3333V96.3333H0V95.3333ZM6.28125 95.3333V94.3333H10.4688V95.3333V96.3333H6.28125V95.3333ZM14.6562 95.3333V94.3333H18.8438V95.3333V96.3333H14.6562V95.3333ZM23.0312 95.3333V94.3333H27.2188V95.3333V96.3333H23.0312V95.3333ZM31.4062 95.3333V94.3333H35.5938V95.3333V96.3333H31.4062V95.3333ZM39.7812 95.3333V94.3333H43.9688V95.3333V96.3333H39.7812V95.3333ZM48.1562 95.3333V94.3333H52.3438V95.3333V96.3333H48.1562V95.3333ZM56.5312 95.3333V94.3333H60.7188V95.3333V96.3333H56.5312V95.3333ZM64.9062 95.3333V94.3333H67V95.3333V96.3333H64.9062V95.3333ZM67 95.3333V94.3333C67.4688 94.3333 67.9258 94.2874 68.3672 94.2001L68.5613 95.181L68.7554 96.162C68.1868 96.2745 67.5998 96.3333 67 96.3333V95.3333ZM71.4449 93.9858L70.8886 93.1549C71.6524 92.6435 72.3102 91.9857 72.8216 91.2219L73.6525 91.7782L74.4835 92.3346C73.8267 93.3156 72.9823 94.16 72.0012 94.8168L71.4449 93.9858ZM74.8477 88.8946L73.8667 88.7005C73.9541 88.2591 74 87.8021 74 87.3333H75H76C76 87.9331 75.9412 88.5201 75.8287 89.0887L74.8477 88.8946ZM75 87.3333H74V85.2778H75H76V87.3333H75ZM75 81.1666H74V77.0555H75H76V81.1666H75ZM75 72.9444H74V68.8333H75H76V72.9444H75ZM75 64.7222H74V60.6111H75H76V64.7222H75ZM75 56.5H74V52.3889H75H76V56.5H75ZM75 48.2778H74V44.1666H75H76V48.2778H75ZM75 40.0555H74V35.9444H75H76V40.0555H75ZM75 31.8333H74V27.7222H75H76V31.8333H75ZM75 23.6111H74V19.5H75H76V23.6111H75ZM75 15.3889H74V13.3333H75H76V15.3889H75ZM75 13.3333H74C74 12.7335 74.0588 12.1465 74.1713 11.5779L75.1523 11.772L76.1333 11.9661C76.0459 12.4075 76 12.8645 76 13.3333H75ZM76.3475 8.88839L75.5165 8.33207C76.1733 7.35104 77.0177 6.50661 77.9988 5.84982L78.5551 6.68079L79.1114 7.51176C78.3476 8.0231 77.6898 8.68092 77.1784 9.44471L76.3475 8.88839ZM81.4387 5.48559L81.2446 4.5046C81.8132 4.39213 82.4002 4.33331 83 4.33331V5.33331V6.33331C82.5312 6.33331 82.0742 6.37925 81.6328 6.46658L81.4387 5.48559ZM83 5.33331V4.33331H84.875V5.33331V6.33331H83V5.33331ZM88.625 5.33331V4.33331H92.375V5.33331V6.33331H88.625V5.33331ZM96.125 5.33331V4.33331H99.875V5.33331V6.33331H96.125V5.33331ZM103.625 5.33331V4.33331H107.375V5.33331V6.33331H103.625V5.33331ZM111.125 5.33331V4.33331H114.875V5.33331V6.33331H111.125V5.33331ZM118.625 5.33331V4.33331H122.375V5.33331V6.33331H118.625V5.33331ZM126.125 5.33331V4.33331H129.875V5.33331V6.33331H126.125V5.33331ZM133.625 5.33331V4.33331H137.375V5.33331V6.33331H133.625V5.33331ZM141.125 5.33331V4.33331H143V5.33331V6.33331H141.125V5.33331Z" fill="#F6B725"/>
</svg>
